<?xml version="1.0" encoding="UTF-8"?>
<svg id="_레이어_2" data-name="레이어 2" xmlns="http://www.w3.org/2000/svg" viewBox="0 0 470.67 552.68">
  <defs>
    <style>
      .cls-1 {
        fill: #143c8a;
      }
    </style>
  </defs>
  <g id="_레이어_1-2" data-name="레이어 1">
    <path class="cls-1" d="M275.43,294.82c15.43-43.94,32.32-100.51,32.32-150.24,0-93.59-29.15-117.03-51.45-135.03-3.6-2.91-7.21-5.21-10.73-7.01-6.61-3.39-13.87-3.39-20.48,0-3.52,1.8-7.13,4.1-10.73,7.01-22.3,18-51.45,43.44-51.45,137.03,0,49.73,16.89,104.3,32.32,148.24C112.26,401.17,0,480.22,0,480.22c126.67,13.37,96.67,72.46,96.67,72.46,0,0,78.98-62.13,138.67-169.51,59.69,107.38,138.67,169.51,138.67,169.51,0,0-27.33-64.09,96.67-72.46,0,0-112.26-79.05-195.24-185.4ZM188.97,107.47c-1.94-22.43,7.93-43.61,23.87-50.61,5.96-2.62,13.35-4.34,22.5-4.49,9.13.15,16.51,1.87,22.46,4.48,15.96,6.99,25.84,28.21,23.89,50.67-3.81,43.84-21.52,87.76-46.36,129.27-24.85-41.52-42.56-85.46-46.36-129.31Z"/>
  </g>
</svg>