<?xml version="1.0" encoding="utf-8"?>
<!-- Generator: Adobe Illustrator 27.0.0, SVG Export Plug-In . SVG Version: 6.00 Build 0)  -->
<svg version="1.1" id="Layer_1" xmlns="http://www.w3.org/2000/svg" xmlns:xlink="http://www.w3.org/1999/xlink" x="0px" y="0px"
	 viewBox="0 0 85.2 26.6" style="enable-background:new 0 0 85.2 26.6;" xml:space="preserve">
<style type="text/css">
	.st0{fill:#FFFFFF;}
</style>
<g>
	<path class="st0" d="M1.3,2.1h4.3v9.6l7.7-9.6h5.2L9.7,12.7l9.1,11.8h-5.6L5.6,14.1H5.6v10.4H1.3V2.1z"/>
	<path class="st0" d="M30.1,1.7c6.7,0,10.4,4.8,10.4,11.5s-3.7,11.6-10.4,11.6c-6.8,0-10.4-4.8-10.4-11.6S23.4,1.7,30.1,1.7z
		 M30.1,21.4c4.4,0,6-4.1,6-8.1c0-3.9-1.7-8-6-8s-6,4-6,8C24.1,17.3,25.8,21.4,30.1,21.4z"/>
	<path class="st0" d="M43.6,2.1h5.8c6.5,0,12.3,2.3,12.3,11.2s-5.8,11.2-12.3,11.2h-5.8V2.1z M47.8,21h2.4c3.6,0,7-2.8,7-7.7
		s-3.5-7.7-7-7.7h-2.4C47.8,5.6,47.8,21,47.8,21z"/>
	<path class="st0" d="M70.8,2.1h4.8l8.3,22.4h-4.7l-1.8-5.1h-8.6l-1.9,5.1h-4.4L70.8,2.1z M73.1,6.6L73.1,6.6L70,15.9h6.2L73.1,6.6z
		"/>
</g>
</svg>
