<?xml version="1.0" encoding="utf-8"?>
<!-- Generator: Adobe Illustrator 27.0.0, SVG Export Plug-In . SVG Version: 6.00 Build 0)  -->
<svg version="1.1" id="Layer_1" xmlns="http://www.w3.org/2000/svg" xmlns:xlink="http://www.w3.org/1999/xlink" x="0px" y="0px"
	 viewBox="0 0 97.57 18.4" style="enable-background:new 0 0 97.57 18.4;" xml:space="preserve">
<style type="text/css">
	.st0{clip-path:url(#SVGID_00000143579616136815945340000007106504475303504257_);fill:#F6F6F6;}
	.st1{clip-path:url(#SVGID_00000101072528429574330910000003759533446342098054_);fill:#F6F6F6;}
	.st2{fill:#F6F6F6;}
</style>
<g>
	<g>
		<defs>
			<path id="SVGID_1_" d="M78.59,12.39c-0.55,0.23-1.11,0.45-1.67,0.68c2.83,1.16,5.86,2.45,9.12,3.88l6.15-2.68
				c0,0-4.01-1.48-9.89-3.47C81.1,11.33,79.86,11.87,78.59,12.39 M14.55,8.27c-7.56,3.38-13.33,6.57-13.33,6.57l8.37,2.59
				c4.15-2.97,7.86-5.35,11.19-7.25c0.23-0.13,0.46-0.26,0.68-0.38c-2.11-0.68-4.11-1.35-5.93-1.96C15.2,7.98,14.87,8.13,14.55,8.27
				 M33.6,1.41c-4.07,0.97-8.48,2.49-12.7,4.17c1.7,0.7,3.33,1.35,4.89,1.96c3.61-1.74,6.66-2.83,9.23-3.47
				c1.71-0.54,4.1-0.88,6.87-0.9c0.07,0,0.13,0,0.2,0c1.98,0,3.9,0.17,5.62,0.46c0.42,0.06,0.86,0.14,1.32,0.22
				c3.53,0.65,8.23,1.91,14.5,4.09c1.65,0.57,3.41,1.21,5.29,1.92c1.04,0.39,2.11,0.8,3.22,1.24c0.42-0.2,0.84-0.41,1.27-0.63
				c0.98-0.5,2-1.04,3.05-1.63c-0.96-0.31-1.95-0.63-2.96-0.95c-2.02-0.64-4.11-1.29-6.23-1.92C61.43,4.27,55.51,2.67,50.33,1.6
				c-3.5-0.66-6.61-0.89-9.24-0.89C37.81,0.72,35.26,1.07,33.6,1.41"/>
		</defs>
		<use xlink:href="#SVGID_1_"  style="overflow:visible;fill:#F6F6F6;"/>
		<clipPath id="SVGID_00000116924141162715471450000004825984877445164702_">
			<use xlink:href="#SVGID_1_"  style="overflow:visible;"/>
		</clipPath>
		
			<rect x="1.21" y="0.72" style="clip-path:url(#SVGID_00000116924141162715471450000004825984877445164702_);fill:#F6F6F6;" width="90.98" height="16.71"/>
	</g>
	<g>
		<defs>
			<path id="SVGID_00000048485581254598541350000005010181793541231748_" d="M24.42,8.21c-0.95,0.48-1.94,1.01-2.97,1.59
				c0.92,0.3,1.87,0.6,2.83,0.91c2.02,0.64,4.11,1.28,6.23,1.91c6.37,1.89,12.96,3.65,18.5,4.69c1.84,0.3,4.47,0.61,7.52,0.61
				c2.75,0,5.84-0.25,8.96-0.99c3.71-0.97,7.64-2.36,11.42-3.86c-1.71-0.7-3.33-1.35-4.89-1.96c-3.84,1.86-7.04,2.98-9.72,3.61
				c-0.39,0.09-0.76,0.17-1.13,0.24c-1.52,0.32-3.35,0.51-5.4,0.52c-0.07,0-0.14,0-0.21,0c-2.7,0-5.28-0.31-7.39-0.82
				c-3.47-0.67-8.03-1.92-14.02-4c-1.65-0.57-3.41-1.21-5.29-1.92c-1-0.38-2.03-0.77-3.1-1.19C25.34,7.75,24.88,7.98,24.42,8.21
				 M5.5,4.32c0,0,4.07,1.5,10.03,3.51c1.17-0.52,2.38-1.03,3.61-1.54c0.58-0.24,1.17-0.48,1.76-0.71
				c-2.86-1.17-5.94-2.48-9.25-3.93L5.5,4.32z M76.95,8.5c-0.2,0.11-0.4,0.22-0.59,0.34c2.12,0.69,4.12,1.35,5.94,1.97
				c0.3-0.13,0.59-0.26,0.88-0.39c7.27-3.25,12.89-6.32,13.31-6.55V3.84l-8.34-2.59C84,4.22,80.28,6.6,76.95,8.5"/>
		</defs>
		<use xlink:href="#SVGID_00000048485581254598541350000005010181793541231748_"  style="overflow:visible;fill:#F6F6F6;"/>
		<clipPath id="SVGID_00000130614091679285779520000005604940964255035015_">
			<use xlink:href="#SVGID_00000048485581254598541350000005010181793541231748_"  style="overflow:visible;"/>
		</clipPath>
		
			<rect x="5.5" y="1.25" style="clip-path:url(#SVGID_00000130614091679285779520000005604940964255035015_);fill:#F6F6F6;" width="90.99" height="16.67"/>
	</g>
	<path class="st2" d="M73.3,10.47c-0.43,0.22-0.86,0.43-1.27,0.63c1.56,0.61,3.19,1.27,4.89,1.96c0.56-0.22,1.12-0.45,1.67-0.68
		c1.27-0.52,2.51-1.06,3.71-1.59c-1.82-0.62-3.82-1.28-5.94-1.97C75.3,9.43,74.28,9.97,73.3,10.47 M19.14,6.29
		c-1.23,0.51-2.44,1.03-3.61,1.54c1.82,0.62,3.82,1.28,5.93,1.96c1.03-0.58,2.01-1.11,2.97-1.59c0.46-0.23,0.91-0.46,1.36-0.67
		c-1.56-0.61-3.18-1.26-4.89-1.96C20.3,5.82,19.72,6.05,19.14,6.29"/>
</g>
</svg>
