<?xml version="1.0" encoding="utf-8"?>
<!-- Generator: Adobe Illustrator 27.0.0, SVG Export Plug-In . SVG Version: 6.00 Build 0)  -->
<svg version="1.1" id="Layer_1" xmlns="http://www.w3.org/2000/svg" xmlns:xlink="http://www.w3.org/1999/xlink" x="0px" y="0px"
	 viewBox="0 0 82.72 15.67" style="enable-background:new 0 0 82.72 15.67;" xml:space="preserve">
<style type="text/css">
	.st0{fill:#034694;}
	.st1{clip-path:url(#SVGID_00000043433506812246148910000006099597746998407562_);}
	.st2{clip-path:url(#SVGID_00000131349046003733224700000006209926037969063557_);}
	.st3{clip-path:url(#SVGID_00000107567272753625689420000006714587987747159717_);}
	.st4{clip-path:url(#SVGID_00000124842739090460861150000001494433628609634212_);}
	.st5{clip-path:url(#SVGID_00000134932249473749571320000013674041058193430964_);}
	.st6{clip-path:url(#SVGID_00000137833066537765854220000007432000147773088664_);}
	.st7{clip-path:url(#SVGID_00000139264601789724800630000011076228849921627274_);}
	.st8{clip-path:url(#SVGID_00000147935007655986993480000017703771486609952669_);}
	.st9{clip-path:url(#SVGID_00000139997484857964812290000002171019406133017269_);}
	.st10{clip-path:url(#SVGID_00000014615447516467826680000002329728917920737446_);}
</style>
<g>
	<g>
		<path class="st0" d="M2.45,1.79h2.3v5.2l4.15-5.2h2.83L7,7.49l4.92,6.39H8.91L4.78,8.27H4.75v5.61h-2.3V1.79z"/>
		<path class="st0" d="M17.99,1.58c3.6,0,5.63,2.56,5.63,6.22c0,3.65-1.99,6.29-5.63,6.29c-3.68,0-5.63-2.58-5.63-6.29
			C12.37,4.09,14.34,1.58,17.99,1.58z M17.99,12.18c2.35,0,3.22-2.2,3.22-4.38c0-2.13-0.94-4.31-3.22-4.31
			c-2.29,0-3.22,2.18-3.22,4.31C14.77,9.98,15.64,12.18,17.99,12.18z"/>
		<path class="st0" d="M25.24,1.79h3.14c3.52,0,6.63,1.25,6.63,6.04c0,4.8-3.11,6.04-6.63,6.04h-3.14V1.79z M27.54,11.97h1.28
			c1.92,0,3.78-1.51,3.78-4.14c0-2.63-1.86-4.14-3.78-4.14h-1.28V11.97z"/>
		<path class="st0" d="M39.91,1.79h2.6l4.51,12.09h-2.55l-0.99-2.77h-4.65l-1,2.77h-2.39L39.91,1.79z M41.18,4.22h-0.03L39.48,9.2
			h3.36L41.18,4.22z"/>
	</g>
	<g>
		<path class="st0" d="M52.1,1.79h2.3v10.18h4.46v1.91H52.1V1.79z"/>
		<path class="st0" d="M64.11,1.79h2.6l4.51,12.09h-2.55l-0.99-2.77h-4.65l-1,2.77h-2.39L64.11,1.79z M65.38,4.22h-0.03L63.69,9.2
			h3.36L65.38,4.22z"/>
	</g>
	<g>
		<path class="st0" d="M72.21,1.79h4.01c1.48,0,3.7,0.45,3.7,3.1c0,1.44-0.92,2.44-2.29,2.7v0.03c1.56,0.16,2.63,1.26,2.63,2.75
			c0,3.05-2.6,3.5-4.05,3.5h-4.01V1.79z M74.52,6.67h0.94c0.97,0,2.17-0.23,2.17-1.47c0-1.4-1.17-1.51-2.22-1.51h-0.89V6.67z
			 M74.52,11.97h1.09c1.07,0,2.37-0.28,2.37-1.68c0-1.58-1.22-1.82-2.37-1.82h-1.09V11.97z"/>
	</g>
</g>
</svg>
