<?xml version="1.0" encoding="utf-8"?>
<!-- Generator: Adobe Illustrator 27.0.0, SVG Export Plug-In . SVG Version: 6.00 Build 0)  -->
<svg version="1.1" id="Layer_1" xmlns="http://www.w3.org/2000/svg" xmlns:xlink="http://www.w3.org/1999/xlink" x="0px" y="0px"
	 viewBox="0 0 85.23 26.64" style="enable-background:new 0 0 85.23 26.64;" xml:space="preserve">
<style type="text/css">
	.st0{fill:#034694;}
	.st1{clip-path:url(#SVGID_00000011023676550577098980000005791725906853921191_);}
	.st2{clip-path:url(#SVGID_00000090267639513142635510000017156575572747784592_);}
	.st3{clip-path:url(#SVGID_00000035532822860958435730000012797292388508850879_);}
	.st4{clip-path:url(#SVGID_00000066488574095230266260000004035304390320788891_);}
	.st5{clip-path:url(#SVGID_00000115479484024212195420000016980690067710131380_);}
	.st6{clip-path:url(#SVGID_00000042695153823548533800000014836509297779355276_);}
	.st7{clip-path:url(#SVGID_00000171697252864267396980000006531641359354617225_);}
	.st8{clip-path:url(#SVGID_00000036937751791804399940000008822058670253209516_);}
	.st9{clip-path:url(#SVGID_00000062170591409004728140000002616301431772173194_);}
	.st10{clip-path:url(#SVGID_00000183959256029016079050000010869660079904363933_);}
</style>
<g>
	<path class="st0" d="M1.28,2.12h4.27v9.63l7.68-9.63h5.24L9.73,12.68l9.12,11.84h-5.58l-7.65-10.4H5.55v10.4H1.28V2.12z"/>
	<path class="st0" d="M30.12,1.73c6.68,0,10.43,4.75,10.43,11.52c0,6.77-3.69,11.65-10.43,11.65c-6.83,0-10.43-4.78-10.43-11.65
		S23.35,1.73,30.12,1.73z M30.12,21.37c4.36,0,5.98-4.07,5.98-8.12c0-3.95-1.74-7.99-5.98-7.99s-5.98,4.04-5.98,7.99
		C24.14,17.3,25.76,21.37,30.12,21.37z"/>
	<path class="st0" d="M43.56,2.12h5.82c6.52,0,12.29,2.31,12.29,11.2c0,8.89-5.76,11.2-12.29,11.2h-5.82V2.12z M47.83,20.99h2.38
		c3.57,0,7.01-2.79,7.01-7.67c0-4.88-3.45-7.67-7.01-7.67h-2.38V20.99z"/>
	<path class="st0" d="M70.78,2.12h4.82l8.35,22.4h-4.73l-1.83-5.13h-8.63l-1.86,5.13h-4.42L70.78,2.12z M73.13,6.61h-0.06
		l-3.08,9.24h6.22L73.13,6.61z"/>
</g>
</svg>
