<?xml version="1.0" encoding="utf-8"?>
<!-- Generator: Adobe Illustrator 27.0.0, SVG Export Plug-In . SVG Version: 6.00 Build 0)  -->
<svg version="1.1" id="Layer_1" xmlns="http://www.w3.org/2000/svg" xmlns:xlink="http://www.w3.org/1999/xlink" x="0px" y="0px"
	 viewBox="0 0 90.9 60" style="enable-background:new 0 0 90.9 60;" xml:space="preserve">
<style type="text/css">
	.st0{clip-path:url(#SVGID_00000168820732743589069390000015694316539428163737_);}
	.st1{clip-path:url(#SVGID_00000021110903261172906910000013646436897190339773_);}
	.st2{clip-path:url(#SVGID_00000105392733322139592810000005417248211355517836_);}
	.st3{clip-path:url(#SVGID_00000042007058047543718020000001852098034533446543_);}
	.st4{clip-path:url(#SVGID_00000099624702605224558640000015802465592116437644_);}
	.st5{clip-path:url(#SVGID_00000113352404986812588650000007478222886380084608_);}
	.st6{clip-path:url(#SVGID_00000027586800851938764800000007311942990989046684_);}
	.st7{clip-path:url(#SVGID_00000150799379221951335180000017418188305651444895_);}
	.st8{fill:#034694;}
</style>
<g>
	<g>
		<g>
			<g>
				<defs>
					<rect id="SVGID_1_" x="0.8" y="0.7" width="85.3" height="15.7"/>
				</defs>
				<clipPath id="SVGID_00000168097814165150469180000014217068418422273716_">
					<use xlink:href="#SVGID_1_"  style="overflow:visible;"/>
				</clipPath>
			</g>
			<g>
				<defs>
					<rect id="SVGID_00000105393348321172258120000005638820709049951135_" x="0.8" y="0.7" width="85.3" height="15.7"/>
				</defs>
				<defs>
					<path id="SVGID_00000082336359320153738130000010896101190881188524_" d="M76.8,10.2c-1.1,0.5-2.3,1-3.5,1.5
						c-0.5,0.2-1,0.4-1.6,0.6c2.7,1.1,5.5,2.3,8.6,3.6l5.8-2.5C86.1,13.4,82.3,12.1,76.8,10.2 M14.2,7.4c-0.3,0.1-0.6,0.3-0.9,0.4
						C6.2,11,0.8,14,0.8,14l7.8,2.4c3.9-2.8,7.4-5,10.5-6.8c0.2-0.1,0.4-0.2,0.6-0.4C17.8,8.6,15.9,8,14.2,7.4 M38.2,0.7
						c-3.1,0-5.5,0.3-7,0.6c-3.8,0.9-8,2.3-11.9,3.9c1.6,0.7,3.1,1.3,4.6,1.8c3.4-1.6,6.2-2.7,8.7-3.2c1.6-0.5,3.8-0.8,6.4-0.8
						C39,3,39,3,39.1,3c1.9,0,3.7,0.2,5.3,0.4c0.4,0.1,0.8,0.1,1.2,0.2c3.3,0.6,7.7,1.8,13.6,3.8c1.5,0.5,3.2,1.1,5,1.8
						c1,0.4,2,0.8,3,1.2c0.4-0.2,0.8-0.4,1.2-0.6c0.9-0.5,1.9-1,2.9-1.5c-0.9-0.3-1.8-0.6-2.8-0.9c-1.9-0.6-3.8-1.2-5.8-1.8
						c-5.4-1.6-10.9-3.1-15.8-4.1C43.5,0.9,40.6,0.7,38.2,0.7L38.2,0.7L38.2,0.7z"/>
				</defs>
				<clipPath id="SVGID_00000159449040724868233400000005060918210180098185_">
					<use xlink:href="#SVGID_00000105393348321172258120000005638820709049951135_"  style="overflow:visible;"/>
				</clipPath>
				
					<clipPath id="SVGID_00000091707103286486501250000015978142941073745040_" style="clip-path:url(#SVGID_00000159449040724868233400000005060918210180098185_);">
					<use xlink:href="#SVGID_00000082336359320153738130000010896101190881188524_"  style="overflow:visible;"/>
				</clipPath>
				<g style="clip-path:url(#SVGID_00000091707103286486501250000015978142941073745040_);">
					<g>
						<defs>
							<rect id="SVGID_00000039823307410572483570000011584365732869126279_" x="-5.6" y="0" width="92.8" height="17.2"/>
						</defs>
						<clipPath id="SVGID_00000080916055221313654050000018416093289086898592_">
							<use xlink:href="#SVGID_00000039823307410572483570000011584365732869126279_"  style="overflow:visible;"/>
						</clipPath>
						<g style="clip-path:url(#SVGID_00000080916055221313654050000018416093289086898592_);">
							
								<image style="overflow:visible;enable-background:new    ;" width="185" height="38" xlink:href="BFCC93D9.jpg"  transform="matrix(0.5078 0 0 -0.5078 -5.7982 18.6769)">
							</image>
						</g>
					</g>
				</g>
			</g>
		</g>
		<g>
			<g>
				<defs>
					<rect id="SVGID_00000132777948132941221020000004574059579945653896_" x="4.6" y="1" width="85.5" height="16"/>
				</defs>
				<clipPath id="SVGID_00000036228518252713430320000011055289238344946068_">
					<use xlink:href="#SVGID_00000132777948132941221020000004574059579945653896_"  style="overflow:visible;"/>
				</clipPath>
			</g>
			<g>
				<defs>
					<rect id="SVGID_00000124152467389393361220000009625931841712273540_" x="4.6" y="1" width="85.5" height="16"/>
				</defs>
				<defs>
					<path id="SVGID_00000057851673610143022860000001431340919932579734_" d="M23.8,7.1c-0.4,0.2-0.8,0.4-1.3,0.6
						c-0.9,0.4-1.8,0.9-2.8,1.5c0.9,0.3,1.8,0.6,2.7,0.9c1.9,0.6,3.9,1.2,5.8,1.8c6,1.8,12.1,3.4,17.4,4.4c1.7,0.3,4.2,0.6,7.1,0.6
						c2.6,0,5.5-0.2,8.4-0.9c3.5-0.9,7.2-2.2,10.7-3.6c-1.6-0.7-3.1-1.3-4.6-1.8c-3.6,1.7-6.6,2.8-9.1,3.4C57.7,14,57.4,14,57,14.1
						c-1.4,0.3-3.2,0.5-5.1,0.5c-0.1,0-0.1,0-0.2,0c-2.5,0-5-0.3-6.9-0.8c-3.2-0.6-7.5-1.8-13.1-3.8c-1.5-0.5-3.2-1.1-5-1.8
						C25.8,7.9,24.8,7.5,23.8,7.1 M10.6,1.6L4.8,4.1c0,0,3.8,1.4,9.4,3.3c1.1-0.5,2.2-1,3.4-1.5c0.5-0.2,1.1-0.4,1.6-0.7
						C16.5,4.2,13.7,3,10.6,1.6 M82.3,1.2C78.4,4,74.9,6.2,71.8,8c-0.2,0.1-0.4,0.2-0.6,0.3c2,0.6,3.9,1.3,5.6,1.9
						c0.3-0.1,0.6-0.2,0.8-0.4c7.1-3.2,12.5-6.2,12.5-6.2L82.3,1.2L82.3,1.2z"/>
				</defs>
				<clipPath id="SVGID_00000031896708664097832640000016429961231051304066_">
					<use xlink:href="#SVGID_00000124152467389393361220000009625931841712273540_"  style="overflow:visible;"/>
				</clipPath>
				
					<clipPath id="SVGID_00000111174533344054526200000001071970290597331087_" style="clip-path:url(#SVGID_00000031896708664097832640000016429961231051304066_);">
					<use xlink:href="#SVGID_00000057851673610143022860000001431340919932579734_"  style="overflow:visible;"/>
				</clipPath>
				<g style="clip-path:url(#SVGID_00000111174533344054526200000001071970290597331087_);">
					<g>
						<defs>
							<rect id="SVGID_00000140711768290031699420000017233336980588166022_" x="0" y="0.1" width="95" height="17.6"/>
						</defs>
						<clipPath id="SVGID_00000016792666005519209260000012650163282034538890_">
							<use xlink:href="#SVGID_00000140711768290031699420000017233336980588166022_"  style="overflow:visible;"/>
						</clipPath>
						<g style="clip-path:url(#SVGID_00000016792666005519209260000012650163282034538890_);">
							
								<image style="overflow:visible;enable-background:new    ;" width="185" height="37" xlink:href="BFCC93DB.jpg"  transform="matrix(0.5306 0 0 -0.5306 -1.2921 18.9004)">
							</image>
						</g>
					</g>
				</g>
			</g>
		</g>
		<g>
			<g>
				<defs>
					<rect id="SVGID_00000147931767531165954260000012310181317154650277_" x="14" y="5" width="63.1" height="7.5"/>
				</defs>
				<clipPath id="SVGID_00000071560567487598172610000016575398639007313834_">
					<use xlink:href="#SVGID_00000147931767531165954260000012310181317154650277_"  style="overflow:visible;"/>
				</clipPath>
			</g>
			<g>
				<defs>
					<rect id="SVGID_00000124850592265511922360000014731550263790844800_" x="14" y="5" width="63.1" height="7.5"/>
				</defs>
				<defs>
					<path id="SVGID_00000166647599982223645420000007635969692516760985_" d="M71.2,8.3c-1,0.6-1.9,1.1-2.9,1.5
						c-0.4,0.2-0.8,0.4-1.2,0.6c1.5,0.6,3,1.2,4.6,1.8c0.5-0.2,1.1-0.4,1.6-0.6c1.2-0.5,2.3-1,3.5-1.5C75.1,9.6,73.2,9,71.2,8.3
						 M19.2,5.3c-0.5,0.2-1.1,0.4-1.6,0.7c-1.1,0.5-2.3,1-3.4,1.4c1.7,0.6,3.6,1.2,5.6,1.8c1-0.5,1.9-1,2.8-1.5
						c0.4-0.2,0.9-0.4,1.3-0.6C22.4,6.6,20.8,5.9,19.2,5.3L19.2,5.3L19.2,5.3z"/>
				</defs>
				<clipPath id="SVGID_00000088814879705209137360000007071469030137789882_">
					<use xlink:href="#SVGID_00000124850592265511922360000014731550263790844800_"  style="overflow:visible;"/>
				</clipPath>
				
					<clipPath id="SVGID_00000070111072201931602280000013377613218553817247_" style="clip-path:url(#SVGID_00000088814879705209137360000007071469030137789882_);">
					<use xlink:href="#SVGID_00000166647599982223645420000007635969692516760985_"  style="overflow:visible;"/>
				</clipPath>
				<g style="clip-path:url(#SVGID_00000070111072201931602280000013377613218553817247_);">
					
						<image style="overflow:visible;enable-background:new    ;" width="375" height="48" xlink:href="BFCC93DE.jpg"  transform="matrix(0.1752 0 0 -0.2363 12.4835 14.2967)">
					</image>
				</g>
			</g>
		</g>
		<g>
			<path class="st8" d="M8.4,39.6h2.3v5.2l4.1-5.2h2.8L13,45.3l4.9,6.4h-3l-4.1-5.6h0v5.6H8.4L8.4,39.6L8.4,39.6z"/>
			<path class="st8" d="M24,39.4c3.6,0,5.6,2.6,5.6,6.2c0,3.7-2,6.3-5.6,6.3c-3.7,0-5.6-2.6-5.6-6.3C18.4,41.9,20.3,39.4,24,39.4z
				 M24,50c2.4,0,3.2-2.2,3.2-4.4c0-2.1-0.9-4.3-3.2-4.3c-2.3,0-3.2,2.2-3.2,4.3C20.8,47.8,21.6,50,24,50z"/>
			<path class="st8" d="M31.2,39.6h3.1c3.5,0,6.6,1.2,6.6,6c0,4.8-3.1,6-6.6,6h-3.1V39.6z M33.5,49.8h1.3c1.9,0,3.8-1.5,3.8-4.1
				s-1.9-4.1-3.8-4.1h-1.3V49.8z"/>
			<path class="st8" d="M45.9,39.6h2.6L53,51.7h-2.5l-1-2.8h-4.7l-1,2.8h-2.4L45.9,39.6z M47.2,42L47.2,42l-1.7,5h3.4L47.2,42z"/>
		</g>
		<g>
			<path class="st8" d="M58.1,39.6h2.3v10.2h4.5v1.9h-6.8V39.6z"/>
			<path class="st8" d="M70.1,39.6h2.6l4.5,12.1h-2.6l-1-2.8H69l-1,2.8h-2.4L70.1,39.6z M71.4,42L71.4,42l-1.7,5H73L71.4,42z"/>
		</g>
		<g>
			<path class="st8" d="M78.2,39.6h4c1.5,0,3.7,0.5,3.7,3.1c0,1.4-0.9,2.4-2.3,2.7v0c1.6,0.2,2.6,1.3,2.6,2.8c0,3-2.6,3.5-4.1,3.5
				h-4L78.2,39.6L78.2,39.6z M80.5,44.5h0.9c1,0,2.2-0.2,2.2-1.5c0-1.4-1.2-1.5-2.2-1.5h-0.9V44.5z M80.5,49.8h1.1
				c1.1,0,2.4-0.3,2.4-1.7c0-1.6-1.2-1.8-2.4-1.8h-1.1V49.8z"/>
		</g>
		<g>
			<path class="st8" d="M8.4,55.7h0.7v1.1h0l0.8-1.1h0.9l-1,1.3l1.1,1.5H10l-0.8-1.2h0v1.2H8.4V55.7z"/>
		</g>
		<g>
			<path class="st8" d="M12.1,56.4c0.6,0,1,0.4,1,1c0,0.6-0.4,1-1,1c-0.6,0-1-0.5-1-1C11.1,56.8,11.5,56.4,12.1,56.4z M12.1,58.1
				c0.4,0,0.6-0.4,0.6-0.7c0-0.4-0.2-0.7-0.6-0.7s-0.6,0.4-0.6,0.7C11.5,57.8,11.7,58.1,12.1,58.1z"/>
			<path class="st8" d="M13.6,56.4h0.3v0.3h0c0.1-0.2,0.3-0.3,0.5-0.3c0.1,0,0.2,0,0.2,0v0.3c-0.1,0-0.1,0-0.2,0
				c-0.3,0-0.5,0.3-0.5,0.8v0.9h-0.4L13.6,56.4L13.6,56.4z"/>
			<path class="st8" d="M16.6,58.3c-0.1,0-0.3,0.1-0.6,0.1c-0.7,0-1-0.4-1-1.1c0-0.6,0.4-1,0.9-1c0.7,0,0.9,0.5,0.9,1.1h-1.4
				c0,0.4,0.3,0.7,0.6,0.7c0.2,0,0.5-0.1,0.6-0.2L16.6,58.3L16.6,58.3z M16.4,57.2c0-0.3-0.2-0.5-0.5-0.5c-0.4,0-0.5,0.3-0.5,0.5
				H16.4z"/>
			<path class="st8" d="M17.4,56.5c0.2-0.1,0.4-0.2,0.6-0.2c0.6,0,0.8,0.3,0.8,0.8V58c0,0.2,0,0.3,0,0.4h-0.3v-0.3h0
				c-0.1,0.1-0.3,0.3-0.6,0.3c-0.4,0-0.7-0.2-0.7-0.6c0-0.5,0.5-0.7,0.9-0.7c0.1,0,0.2,0,0.4,0c0-0.3-0.1-0.5-0.5-0.5
				c-0.2,0-0.4,0.1-0.6,0.2L17.4,56.5z M18.5,57.4c-0.1,0-0.1,0-0.2,0c-0.2,0-0.7,0-0.7,0.4c0,0.2,0.2,0.3,0.4,0.3
				c0.4,0,0.5-0.2,0.5-0.5V57.4z"/>
		</g>
		<g>
			<path class="st8" d="M21.7,55.6c0.9,0,1.4,0.5,1.4,1.4c0,0.9-0.5,1.4-1.4,1.4c-0.9,0-1.4-0.5-1.4-1.4
				C20.4,56.2,20.8,55.6,21.7,55.6z M21.7,57.9c0.4,0,0.6-0.4,0.6-0.9c0-0.5-0.2-0.9-0.6-0.9s-0.6,0.4-0.6,0.9
				C21.1,57.5,21.3,57.9,21.7,57.9z"/>
		</g>
		<g>
			<path class="st8" d="M23.5,56.4h0.3v0.3h0c0.1-0.2,0.3-0.3,0.5-0.3c0.1,0,0.2,0,0.2,0v0.3c-0.1,0-0.1,0-0.2,0
				c-0.3,0-0.5,0.3-0.5,0.8v0.9h-0.4L23.5,56.4L23.5,56.4z"/>
			<path class="st8" d="M26.8,58.3c0,0.6-0.3,1-1,1c-0.2,0-0.4,0-0.7-0.1l0-0.3c0.3,0.1,0.5,0.2,0.7,0.2c0.4,0,0.6-0.3,0.6-0.7v-0.2
				h0c-0.2,0.2-0.4,0.3-0.7,0.3c-0.6,0-0.8-0.5-0.8-1c0-0.5,0.3-1,0.9-1c0.4,0,0.5,0.1,0.6,0.3h0v-0.3h0.3V58.3z M26.4,57.4
				c0-0.4-0.2-0.8-0.6-0.8c-0.4,0-0.5,0.4-0.5,0.7c0,0.4,0.2,0.7,0.5,0.7S26.4,57.8,26.4,57.4z"/>
			<path class="st8" d="M27.5,56.5c0.2-0.1,0.4-0.2,0.6-0.2c0.6,0,0.8,0.3,0.8,0.8V58c0,0.2,0,0.3,0,0.4h-0.3v-0.3h0
				c-0.1,0.1-0.3,0.3-0.6,0.3c-0.4,0-0.7-0.2-0.7-0.6c0-0.5,0.5-0.7,0.9-0.7c0.1,0,0.2,0,0.4,0c0-0.3-0.1-0.5-0.5-0.5
				c-0.2,0-0.4,0.1-0.6,0.2L27.5,56.5z M28.6,57.4c-0.1,0-0.1,0-0.2,0c-0.2,0-0.7,0-0.7,0.4c0,0.2,0.2,0.3,0.4,0.3
				c0.4,0,0.5-0.2,0.5-0.5V57.4z"/>
			<path class="st8" d="M29.6,56.4h0.4v0.3h0c0.1-0.2,0.4-0.4,0.6-0.4c0.5,0,0.7,0.3,0.7,0.8v1.2H31v-1c0-0.5-0.1-0.7-0.4-0.7
				c-0.4,0-0.6,0.3-0.6,0.8v0.9h-0.4L29.6,56.4L29.6,56.4z"/>
		</g>
		<g>
			<path class="st8" d="M33,55.7h1c0.9,0,1.6,0.3,1.6,1.3c0,1-0.7,1.4-1.6,1.4h-1V55.7z M33.7,57.8H34c0.5,0,0.8-0.3,0.8-0.8
				s-0.3-0.8-0.8-0.8h-0.3V57.8z"/>
		</g>
		<g>
			<path class="st8" d="M36.9,56.4c0.6,0,1,0.4,1,1c0,0.6-0.4,1-1,1c-0.6,0-1-0.5-1-1C35.9,56.8,36.3,56.4,36.9,56.4z M36.9,58.1
				c0.4,0,0.6-0.4,0.6-0.7c0-0.4-0.2-0.7-0.6-0.7s-0.6,0.4-0.6,0.7C36.3,57.8,36.5,58.1,36.9,58.1z"/>
			<path class="st8" d="M38.4,56.4h0.3v0.3h0c0.1-0.2,0.4-0.4,0.7-0.4c0.5,0,0.7,0.3,0.7,0.8v1.2h-0.4v-1c0-0.5-0.1-0.7-0.4-0.7
				c-0.4,0-0.6,0.3-0.6,0.8v0.9h-0.4L38.4,56.4L38.4,56.4z"/>
			<path class="st8" d="M40.9,56.5c0.2-0.1,0.4-0.2,0.7-0.2c0.6,0,0.8,0.3,0.8,0.8V58c0,0.2,0,0.3,0,0.4H42v-0.3h0
				c-0.1,0.1-0.3,0.3-0.6,0.3c-0.4,0-0.7-0.2-0.7-0.6c0-0.5,0.5-0.7,0.9-0.7c0.1,0,0.2,0,0.4,0c0-0.3-0.1-0.5-0.5-0.5
				c-0.2,0-0.4,0.1-0.6,0.2L40.9,56.5z M42,57.4c-0.1,0-0.2,0-0.2,0c-0.2,0-0.7,0-0.7,0.4c0,0.2,0.2,0.3,0.4,0.3
				c0.4,0,0.5-0.2,0.5-0.5V57.4z"/>
			<path class="st8" d="M44,56.7h-0.5v1.1c0,0.2,0.1,0.3,0.3,0.3c0.1,0,0.2,0,0.2-0.1v0.3c-0.1,0-0.2,0-0.3,0
				c-0.4,0-0.6-0.2-0.6-0.6v-1.2h-0.5v-0.3h0.5V56l0.4-0.1v0.6H44V56.7z"/>
			<path class="st8" d="M44.9,56h-0.4v-0.4h0.4V56z M44.5,56.4h0.4v2h-0.4V56.4z"/>
			<path class="st8" d="M46.4,56.4c0.6,0,1,0.4,1,1c0,0.6-0.4,1-1,1c-0.6,0-1-0.5-1-1C45.4,56.8,45.8,56.4,46.4,56.4z M46.4,58.1
				c0.4,0,0.6-0.4,0.6-0.7c0-0.4-0.2-0.7-0.6-0.7s-0.6,0.4-0.6,0.7C45.8,57.8,46,58.1,46.4,58.1z"/>
		</g>
		<g>
			<path class="st8" d="M47.9,56.4h0.3v0.3h0c0.1-0.2,0.4-0.4,0.7-0.4c0.5,0,0.7,0.3,0.7,0.8v1.2h-0.4v-1c0-0.5-0.1-0.7-0.4-0.7
				c-0.4,0-0.6,0.3-0.6,0.8v0.9h-0.4L47.9,56.4L47.9,56.4z"/>
		</g>
		<g>
			<path class="st8" d="M52.1,55.7H53l1,2.7h-0.8L53,57.8h-1l-0.2,0.6h-0.7L52.1,55.7z M52.5,56.2L52.5,56.2l-0.4,1.1h0.7L52.5,56.2
				z"/>
		</g>
		<g>
			<path class="st8" d="M56.1,58.3c0,0.6-0.3,1-1,1c-0.2,0-0.4,0-0.7-0.1l0-0.3c0.3,0.1,0.5,0.2,0.7,0.2c0.4,0,0.6-0.3,0.6-0.7v-0.2
				h0c-0.2,0.2-0.4,0.3-0.7,0.3c-0.6,0-0.8-0.5-0.8-1c0-0.5,0.3-1,0.9-1c0.3,0,0.5,0.1,0.7,0.3h0v-0.3h0.3L56.1,58.3L56.1,58.3z
				 M55.7,57.4c0-0.4-0.2-0.8-0.6-0.8c-0.4,0-0.5,0.4-0.5,0.7c0,0.4,0.2,0.7,0.5,0.7C55.5,58.1,55.7,57.8,55.7,57.4z"/>
			<path class="st8" d="M58.2,58.3c-0.1,0-0.3,0.1-0.6,0.1c-0.7,0-1-0.4-1-1.1c0-0.6,0.4-1,0.9-1c0.7,0,0.9,0.5,0.9,1.1H57
				c0,0.4,0.3,0.7,0.7,0.7c0.2,0,0.5-0.1,0.6-0.2L58.2,58.3L58.2,58.3z M58,57.2c0-0.3-0.2-0.5-0.5-0.5c-0.4,0-0.5,0.3-0.5,0.5H58z"
				/>
			<path class="st8" d="M58.9,56.4h0.3v0.3h0c0.1-0.2,0.4-0.4,0.7-0.4c0.5,0,0.7,0.3,0.7,0.8v1.2h-0.4v-1c0-0.5-0.1-0.7-0.4-0.7
				c-0.4,0-0.6,0.3-0.6,0.8v0.9h-0.4L58.9,56.4L58.9,56.4z"/>
			<path class="st8" d="M62.5,56.7c-0.1-0.1-0.3-0.1-0.4-0.1c-0.4,0-0.6,0.4-0.6,0.7c0,0.3,0.2,0.7,0.7,0.7c0.1,0,0.3,0,0.4-0.1
				l0,0.3c-0.2,0.1-0.3,0.1-0.5,0.1c-0.6,0-1-0.5-1-1c0-0.6,0.4-1,1-1c0.2,0,0.3,0,0.4,0.1L62.5,56.7z"/>
			<path class="st8" d="M62.8,58.9c0,0,0.1,0,0.2,0c0.3,0,0.4-0.5,0.4-0.5s0-0.1-0.1-0.2l-0.7-1.8h0.4l0.5,1.6h0l0.5-1.6h0.4l-0.7,2
				c-0.1,0.4-0.3,0.8-0.8,0.8c-0.1,0-0.2,0-0.2,0L62.8,58.9z"/>
		</g>
		<g>
			<path class="st8" d="M65.9,55.7h0.7v2.2h1.1v0.5h-1.8C65.9,58.4,65.9,55.7,65.9,55.7z"/>
			<path class="st8" d="M69.4,58.4c0-0.1,0-0.2,0-0.3h0c-0.2,0.2-0.3,0.4-0.6,0.4c-0.4,0-0.8-0.2-0.8-0.6c0-0.6,0.7-0.7,1-0.7
				c0.1,0,0.2,0,0.3,0c0-0.3-0.2-0.3-0.5-0.3c-0.2,0-0.4,0-0.6,0.2l0-0.5c0.2-0.1,0.5-0.1,0.8-0.1c0.5,0,1,0.2,1,0.8v0.8
				c0,0.2,0,0.3,0,0.5C70,58.4,69.4,58.4,69.4,58.4z M68.9,58c0.3,0,0.4-0.2,0.4-0.5c-0.1,0-0.2,0-0.3,0c-0.2,0-0.4,0.1-0.4,0.3
				C68.6,57.9,68.7,58,68.9,58z"/>
			<path class="st8" d="M70.4,55.5h0.7v1.2h0c0.2-0.2,0.4-0.3,0.7-0.3c0.6,0,0.9,0.5,0.9,1c0,0.6-0.3,1.1-0.9,1.1
				c-0.3,0-0.6-0.2-0.7-0.4h0v0.4h-0.6V55.5z M71.5,56.9c-0.3,0-0.4,0.2-0.4,0.5c0,0.3,0.2,0.5,0.4,0.5c0.3,0,0.4-0.2,0.4-0.5
				C72,57.1,71.8,56.9,71.5,56.9z"/>
		</g>
		<g>
			<path class="st8" d="M74,56.4c0.6,0,1,0.4,1,1c0,0.6-0.4,1-1,1c-0.6,0-1-0.5-1-1C73,56.8,73.4,56.4,74,56.4z M74,58.1
				c0.4,0,0.6-0.4,0.6-0.7c0-0.4-0.2-0.7-0.6-0.7s-0.6,0.4-0.6,0.7C73.4,57.8,73.6,58.1,74,58.1z"/>
			<path class="st8" d="M75.5,56.4h0.3v0.3h0c0.1-0.2,0.3-0.3,0.5-0.3c0.1,0,0.2,0,0.2,0v0.3c-0.1,0-0.1,0-0.2,0
				c-0.3,0-0.5,0.3-0.5,0.8v0.9h-0.4L75.5,56.4L75.5,56.4z"/>
			<path class="st8" d="M77.1,56.5c0.2-0.1,0.4-0.2,0.7-0.2c0.6,0,0.8,0.3,0.8,0.8V58c0,0.2,0,0.3,0,0.4h-0.3v-0.3h0
				c-0.1,0.1-0.3,0.3-0.6,0.3c-0.4,0-0.7-0.2-0.7-0.6c0-0.5,0.5-0.7,0.9-0.7c0.1,0,0.2,0,0.4,0c0-0.3-0.1-0.5-0.5-0.5
				c-0.2,0-0.4,0.1-0.6,0.2L77.1,56.5z M78.2,57.4c-0.1,0-0.2,0-0.2,0c-0.2,0-0.7,0-0.7,0.4c0,0.2,0.2,0.3,0.4,0.3
				c0.4,0,0.6-0.2,0.6-0.5V57.4z"/>
			<path class="st8" d="M80.2,56.7h-0.5v1.1c0,0.2,0.1,0.3,0.3,0.3c0.1,0,0.2,0,0.2-0.1v0.3c-0.1,0-0.2,0-0.3,0
				c-0.4,0-0.6-0.2-0.6-0.6v-1.2h-0.4v-0.3h0.4V56l0.4-0.1v0.6h0.5V56.7z"/>
			<path class="st8" d="M81.6,56.4c0.6,0,1,0.4,1,1c0,0.6-0.4,1-1,1c-0.6,0-1-0.5-1-1C80.5,56.8,80.9,56.4,81.6,56.4z M81.6,58.1
				c0.4,0,0.6-0.4,0.6-0.7c0-0.4-0.2-0.7-0.6-0.7s-0.6,0.4-0.6,0.7C80.9,57.8,81.1,58.1,81.6,58.1z"/>
			<path class="st8" d="M83,56.4h0.3v0.3h0c0.1-0.2,0.3-0.3,0.5-0.3c0.1,0,0.2,0,0.2,0v0.3c-0.1,0-0.1,0-0.2,0
				c-0.3,0-0.5,0.3-0.5,0.8v0.9H83L83,56.4L83,56.4z"/>
		</g>
		<g>
			<path class="st8" d="M84.4,58.9c0.1,0,0.1,0,0.2,0c0.3,0,0.4-0.5,0.4-0.5s-0.1-0.1-0.1-0.2l-0.7-1.8h0.4l0.5,1.6h0l0.5-1.6h0.4
				l-0.7,2c-0.1,0.4-0.3,0.8-0.8,0.8c-0.1,0-0.2,0-0.2,0L84.4,58.9z"/>
		</g>
	</g>
	<path class="st8" d="M12.3,25.5c0.3,0.5,0.5,1,0.5,1.6c-0.1,3.4-4.7,3.3-4.8,0c0-0.6,0.1-1.1,0.5-1.6H7.6v-1.2h2.2v-0.8H11v0.8h2.2
		v1.2H12.3z M8.8,33.9c-0.4,0-0.6-0.3-0.6-0.8v-2.7h1.2v2.1c0,0.1,0.1,0.2,0.2,0.2h5.8v1.2H8.8z M9.1,27.1c0,2,2.6,2,2.6,0
		C11.7,25.2,9.1,25.2,9.1,27.1 M15.3,25.3c-0.1,0-0.2,0.1-0.2,0.2v5.6h-1.2V25c0-0.6,0.3-0.9,0.8-0.9H16v1.2H15.3z"/>
	<path class="st8" d="M21.1,29v1.1h2.2c0.4,0,0.6,0.3,0.6,0.8v3.2h-1.2v-2.6c0-0.1-0.1-0.2-0.2-0.2h-5.4v-1.2h2.7V29h-3.3v-1.2h6.1
		v-2.5c0-0.1-0.1-0.2-0.2-0.2h-5.3v-1.2h6c0.4,0,0.7,0.3,0.7,0.8v3.1h0.8V29C24.6,29,21.1,29,21.1,29z"/>
	<path class="st8" d="M28.4,26c-0.3,1.9-1.3,3.1-3,2.9v-1.2c1.4,0.1,1.9-1.2,2-2.6h-1.8v-1.2h5.5v1.2h-1.8c0.1,1.9,0.7,2.7,2,2.6
		v1.2C29.7,29.1,28.7,28,28.4,26 M27.5,31.9c-0.1-3.2,4.8-3.2,4.7,0C32.2,35,27.5,35,27.5,31.9 M28.8,31.9c0,1.5,2.2,1.5,2.2,0
		C31,30.3,28.7,30.3,28.8,31.9 M33.1,25.1c-0.1,0-0.2,0.1-0.2,0.2v4.4h-1.2v-4.8c0-0.6,0.3-1,0.8-1h1.4v1.2
		C33.9,25.1,33.1,25.1,33.1,25.1z"/>
	<path class="st8" d="M34.3,29.9v-1.2c2.1-0.1,4-0.2,4-3.4c0-0.1-0.1-0.2-0.2-0.2h-3.7v-1.2h4.3c0.5,0,0.8,0.4,0.8,1
		C39.7,29.2,37.5,30,34.3,29.9 M41.1,23.9h1.2v10.3h-1.2V23.9z"/>
	<path class="st8" d="M43.3,32.9v-1.2h3.6v-2.3h1.2v2.3h3.5v1.2H43.3z M47.5,25.9c-0.6,2.4-1.6,4-3.9,3.9v-1.2
		c1.7,0.1,2.6-1.7,2.8-3.4h-2.4v-1.2h6.7v1.2h-2.2c0.2,1.6,1.1,3.5,2.6,3.4v1.2C49,29.9,48,28.1,47.5,25.9"/>
	<path class="st8" d="M55.4,26c-0.4,2-1.5,3-3.2,2.9v-1.2c1.4,0,2.1-1,2.2-2.6h-2v-1.2h6v1.2h-2c0.2,1.7,0.9,2.6,2.3,2.6v1.2
		C56.8,29,55.7,28.1,55.4,26 M58.9,34.2v-2.6c0-0.1-0.1-0.2-0.2-0.2h-6.3v-1.2h7c0.4,0,0.7,0.3,0.7,0.8v3.3
		C60.1,34.2,58.9,34.2,58.9,34.2z M58.9,23.9h1.2v5.9h-1.2V23.9z"/>
	<path class="st8" d="M61.1,29.9v-1.2c2.1-0.1,4-0.2,4-3.4c0-0.1-0.1-0.2-0.2-0.2h-3.7v-1.2h4.3c0.5,0,0.8,0.4,0.8,1
		C66.4,29.2,64.3,30,61.1,29.9 M67.8,23.9H69v10.3h-1.2V23.9z"/>
	<path class="st8" d="M70,28.4h8.1v1.1H70V28.4z M74.1,25.6c-0.5,2.1-2.2,2.8-3.8,2.5V27c1.6,0,2.5-0.6,2.7-1.9h-2.3v-1.2h6.7v1.2
		h-2.2c0.3,1.4,1.6,2,2.7,1.9v1.1C76.2,28.3,74.6,27.6,74.1,25.6 M71.7,32c0.1-2.9,4.8-3,4.8,0.1C76.4,35.1,71.7,34.9,71.7,32
		 M75.2,32c0-1.5-2.2-1.4-2.2,0C72.9,33.5,75.2,33.6,75.2,32L75.2,32z"/>
	<path class="st8" d="M82.5,29.9v1.4h-1.2v-1.4h-2.4v-1.2h6.2v1.2L82.5,29.9L82.5,29.9z M79.4,26.2c0.1-3,4.7-3,4.8,0
		C84.2,29.3,79.3,29.2,79.4,26.2 M80.2,33.9c-0.4,0-0.7-0.3-0.7-0.8v-2.5h1.2v1.9c0,0.1,0.1,0.2,0.2,0.2h5.9v1.2
		C86.9,33.9,80.2,33.9,80.2,33.9z M80.6,26.2c-0.1,1.6,2.4,1.7,2.3,0C82.8,24.7,80.7,24.7,80.6,26.2 M85.4,31.1v-3.4h-1.1v-1.2h1.1
		v-2.6h1.2v7.1H85.4z"/>
</g>
</svg>
