<?xml version="1.0" encoding="utf-8"?>
<!-- Generator: Adobe Illustrator 27.0.0, SVG Export Plug-In . SVG Version: 6.00 Build 0)  -->
<svg version="1.1" id="Layer_1" xmlns="http://www.w3.org/2000/svg" xmlns:xlink="http://www.w3.org/1999/xlink" x="0px" y="0px"
	 viewBox="0 0 90.9 17.4" style="enable-background:new 0 0 90.9 17.4;" xml:space="preserve">
<style type="text/css">
	.st0{clip-path:url(#SVGID_00000102513468351064802980000008887877167597140868_);}
	.st1{clip-path:url(#SVGID_00000080906927617677913750000015977521972810066330_);}
	.st2{clip-path:url(#SVGID_00000120556602655600267400000005798836699170945445_);}
	.st3{clip-path:url(#SVGID_00000009576144943226446520000015293010492140183194_);}
	.st4{clip-path:url(#SVGID_00000026862024667867075260000009907116264907085451_);}
	.st5{clip-path:url(#SVGID_00000133496187723090996660000010551283368951186860_);}
	.st6{clip-path:url(#SVGID_00000101802539262746881840000011819267775488837021_);}
	.st7{clip-path:url(#SVGID_00000070091811811123081120000014348234050571368609_);}
</style>
<g>
	<g>
		<g>
			<defs>
				<rect id="SVGID_1_" x="0.8" y="1.3" width="85.3" height="15.7"/>
			</defs>
			<clipPath id="SVGID_00000098206746178598018830000005016135865411582624_">
				<use xlink:href="#SVGID_1_"  style="overflow:visible;"/>
			</clipPath>
		</g>
		<g>
			<defs>
				<rect id="SVGID_00000124157766111589303050000014645309592009140381_" x="0.8" y="1.3" width="85.3" height="15.7"/>
			</defs>
			<defs>
				<path id="SVGID_00000097477277849140512420000013081461332679516076_" d="M76.8,10.7c-1.1,0.5-2.3,1-3.5,1.5
					c-0.5,0.2-1,0.4-1.6,0.6c2.7,1.1,5.5,2.3,8.6,3.6l5.8-2.5C86.1,14,82.3,12.6,76.8,10.7 M14.2,7.9c-0.3,0.1-0.6,0.3-0.9,0.4
					c-7.1,3.2-12.5,6.2-12.5,6.2l7.9,2.4c3.9-2.8,7.4-5,10.5-6.8c0.2-0.1,0.4-0.2,0.6-0.4C17.8,9.1,15.9,8.5,14.2,7.9 M38.1,1.3
					c-3.1,0-5.5,0.3-7,0.6c-3.8,0.9-8,2.3-11.9,3.9c1.6,0.7,3.1,1.3,4.6,1.8C27.2,6,30,5,32.4,4.4c1.6-0.5,3.8-0.8,6.4-0.8
					c0.1,0,0.1,0,0.2,0c1.9,0,3.7,0.2,5.3,0.4c0.4,0.1,0.8,0.1,1.2,0.2c3.3,0.6,7.7,1.8,13.6,3.8c1.5,0.5,3.2,1.1,5,1.8
					c1,0.4,2,0.8,3,1.2c0.4-0.2,0.8-0.4,1.2-0.6c0.9-0.5,1.9-1,2.9-1.5c-0.9-0.3-1.8-0.6-2.8-0.9c-1.9-0.6-3.8-1.2-5.8-1.8
					c-5.4-1.6-10.9-3.1-15.8-4.1C43.5,1.5,40.6,1.3,38.1,1.3L38.1,1.3L38.1,1.3z"/>
			</defs>
			<clipPath id="SVGID_00000067932406330776637480000002410875393943922859_">
				<use xlink:href="#SVGID_00000124157766111589303050000014645309592009140381_"  style="overflow:visible;"/>
			</clipPath>
			
				<clipPath id="SVGID_00000059300504866282991960000008896116903387169693_" style="clip-path:url(#SVGID_00000067932406330776637480000002410875393943922859_);">
				<use xlink:href="#SVGID_00000097477277849140512420000013081461332679516076_"  style="overflow:visible;"/>
			</clipPath>
			<g style="clip-path:url(#SVGID_00000059300504866282991960000008896116903387169693_);">
				<g>
					<defs>
						<rect id="SVGID_00000016034277576225582460000007847608227055796132_" x="-0.9" y="0.6" width="89.3" height="17"/>
					</defs>
					<clipPath id="SVGID_00000133525858122199098730000016764362067905480380_">
						<use xlink:href="#SVGID_00000016034277576225582460000007847608227055796132_"  style="overflow:visible;"/>
					</clipPath>
					<g style="clip-path:url(#SVGID_00000133525858122199098730000016764362067905480380_);">
						
							<image style="overflow:visible;enable-background:new    ;" width="185" height="38" xlink:href="79DAE820.jpg"  transform="matrix(0.4886 0 0 -0.5007 -1.0525 18.9887)">
						</image>
					</g>
				</g>
			</g>
		</g>
	</g>
	<g>
		<g>
			<defs>
				<rect id="SVGID_00000014609348778181762510000009278189452440328630_" x="4.6" y="1.6" width="85.5" height="16"/>
			</defs>
			<clipPath id="SVGID_00000005259440810335318610000004457748473521317537_">
				<use xlink:href="#SVGID_00000014609348778181762510000009278189452440328630_"  style="overflow:visible;"/>
			</clipPath>
		</g>
		<g>
			<defs>
				<rect id="SVGID_00000075877208270007055770000012075975027711738264_" x="4.6" y="1.6" width="85.5" height="16"/>
			</defs>
			<defs>
				<path id="SVGID_00000178198834771788422850000015222839564221267647_" d="M23.8,7.7c-0.4,0.2-0.8,0.4-1.3,0.6
					c-0.9,0.4-1.8,0.9-2.8,1.5c0.9,0.3,1.8,0.6,2.7,0.9c1.9,0.6,3.9,1.2,5.8,1.8c6,1.8,12.1,3.4,17.4,4.4c1.7,0.3,4.2,0.6,7.1,0.6
					c2.6,0,5.5-0.2,8.4-0.9c3.5-0.9,7.2-2.2,10.7-3.6c-1.6-0.7-3.1-1.3-4.6-1.8c-3.6,1.7-6.6,2.8-9.1,3.4c-0.4,0.1-0.7,0.2-1.1,0.2
					c-1.4,0.3-3.2,0.5-5.1,0.5c-0.1,0-0.1,0-0.2,0c-2.5,0-5-0.3-6.9-0.8c-3.2-0.6-7.5-1.8-13.1-3.8c-1.5-0.5-3.2-1.1-5-1.8
					C25.8,8.4,24.8,8.1,23.8,7.7 M10.5,2.1L4.8,4.6c0,0,3.8,1.4,9.4,3.3c1.1-0.5,2.2-1,3.4-1.5c0.5-0.2,1.1-0.4,1.6-0.7
					C16.5,4.7,13.6,3.5,10.5,2.1 M82.3,1.8c-3.9,2.8-7.4,5-10.5,6.8c-0.2,0.1-0.4,0.2-0.6,0.3c2,0.6,3.9,1.3,5.6,1.9
					c0.3-0.1,0.6-0.2,0.8-0.4c7.1-3.2,12.5-6.2,12.5-6.2L82.3,1.8L82.3,1.8z"/>
			</defs>
			<clipPath id="SVGID_00000036954437720577821130000005519810550002219428_">
				<use xlink:href="#SVGID_00000075877208270007055770000012075975027711738264_"  style="overflow:visible;"/>
			</clipPath>
			
				<clipPath id="SVGID_00000183940664229161941300000002851760461022845617_" style="clip-path:url(#SVGID_00000036954437720577821130000005519810550002219428_);">
				<use xlink:href="#SVGID_00000178198834771788422850000015222839564221267647_"  style="overflow:visible;"/>
			</clipPath>
			<g style="clip-path:url(#SVGID_00000183940664229161941300000002851760461022845617_);">
				<g>
					<defs>
						<rect id="SVGID_00000046305546056612675380000002885269481735772843_" x="4.6" y="-0.4" width="87.5" height="18.6"/>
					</defs>
					<clipPath id="SVGID_00000025435761216518537900000005081171136408554902_">
						<use xlink:href="#SVGID_00000046305546056612675380000002885269481735772843_"  style="overflow:visible;"/>
					</clipPath>
					<g style="clip-path:url(#SVGID_00000025435761216518537900000005081171136408554902_);">
						
							<image style="overflow:visible;enable-background:new    ;" width="184" height="37" xlink:href="79DAE821.jpg"  transform="matrix(0.4917 0 0 -0.5623 3.4604 19.4157)">
						</image>
					</g>
				</g>
			</g>
		</g>
	</g>
	<g>
		<g>
			<defs>
				<rect id="SVGID_00000064314946805789869730000016079104097649165452_" x="14" y="5.6" width="63.1" height="7.5"/>
			</defs>
			<clipPath id="SVGID_00000000912332297233599460000009798033123778823053_">
				<use xlink:href="#SVGID_00000064314946805789869730000016079104097649165452_"  style="overflow:visible;"/>
			</clipPath>
		</g>
		<g>
			<defs>
				<rect id="SVGID_00000019673337451809705170000008053916508532791714_" x="14" y="5.6" width="63.1" height="7.5"/>
			</defs>
			<defs>
				<path id="SVGID_00000057132914537783201410000001984680081392984981_" d="M71.2,8.9c-1,0.6-1.9,1.1-2.9,1.5
					c-0.4,0.2-0.8,0.4-1.2,0.6c1.5,0.6,3,1.2,4.6,1.8c0.5-0.2,1.1-0.4,1.6-0.6c1.2-0.5,2.3-1,3.5-1.5C75.1,10.1,73.2,9.5,71.2,8.9
					 M19.2,5.8c-0.5,0.2-1.1,0.4-1.6,0.7c-1.1,0.5-2.3,1-3.4,1.5c1.7,0.6,3.6,1.2,5.6,1.8c1-0.5,1.9-1,2.8-1.5
					c0.4-0.2,0.9-0.4,1.3-0.6C22.3,7.1,20.8,6.5,19.2,5.8L19.2,5.8L19.2,5.8z"/>
			</defs>
			<clipPath id="SVGID_00000183959027597416182290000015474937634827201424_">
				<use xlink:href="#SVGID_00000019673337451809705170000008053916508532791714_"  style="overflow:visible;"/>
			</clipPath>
			
				<clipPath id="SVGID_00000140006689224723920430000009059565045695963024_" style="clip-path:url(#SVGID_00000183959027597416182290000015474937634827201424_);">
				<use xlink:href="#SVGID_00000057132914537783201410000001984680081392984981_"  style="overflow:visible;"/>
			</clipPath>
			<g style="clip-path:url(#SVGID_00000140006689224723920430000009059565045695963024_);">
				
					<image style="overflow:visible;enable-background:new    ;" width="376" height="49" xlink:href="79DAE827.jpg"  transform="matrix(0.1974 0 0 -0.2085 7.3949 14.4127)">
				</image>
			</g>
		</g>
	</g>
</g>
</svg>
