<?xml version="1.0" encoding="utf-8"?>
<!-- Generator: Adobe Illustrator 27.0.0, SVG Export Plug-In . SVG Version: 6.00 Build 0)  -->
<svg version="1.1" id="Layer_1" xmlns="http://www.w3.org/2000/svg" xmlns:xlink="http://www.w3.org/1999/xlink" x="0px" y="0px"
	 viewBox="0 0 79.12 5.12" style="enable-background:new 0 0 79.12 5.12;" xml:space="preserve">
<style type="text/css">
	.st0{fill:#034694;}
	.st1{clip-path:url(#SVGID_00000006679768319153474820000007279563596683650466_);}
	.st2{clip-path:url(#SVGID_00000068640874360354221280000005655605145729444543_);}
	.st3{clip-path:url(#SVGID_00000089560565599961314680000006659207069208527506_);}
	.st4{clip-path:url(#SVGID_00000069377128966779807390000000973933495392094110_);}
	.st5{clip-path:url(#SVGID_00000108272531129121846750000017990050315163662500_);}
	.st6{clip-path:url(#SVGID_00000049901131596017106770000015337718465930530183_);}
	.st7{clip-path:url(#SVGID_00000038384569406965610300000018216882975667084180_);}
	.st8{clip-path:url(#SVGID_00000052785353003102325990000017466918575778155188_);}
	.st9{clip-path:url(#SVGID_00000135688372338058383910000013965891695934506933_);}
	.st10{clip-path:url(#SVGID_00000000938598268838546600000010222078619312482688_);}
</style>
<g>
	<g>
		<path class="st0" d="M0.7,0.88h0.72v1.1h0.01l0.81-1.1h0.87l-1,1.26l1.08,1.45H2.27L1.43,2.35H1.42v1.23H0.7V0.88z"/>
	</g>
	<g>
		<path class="st0" d="M4.42,1.56c0.6,0,1,0.43,1,1.03c0,0.57-0.41,1.03-1,1.03c-0.6,0-1.01-0.47-1.01-1.03
			C3.42,1.99,3.82,1.56,4.42,1.56z M4.42,3.33c0.43,0,0.62-0.39,0.62-0.74c0-0.38-0.23-0.74-0.62-0.74c-0.39,0-0.62,0.36-0.62,0.74
			C3.8,2.95,3.99,3.33,4.42,3.33z"/>
		<path class="st0" d="M5.92,1.6h0.34v0.31h0.01c0.1-0.21,0.31-0.35,0.52-0.35c0.11,0,0.16,0.01,0.24,0.03v0.33
			c-0.07-0.03-0.14-0.03-0.2-0.03c-0.33,0-0.54,0.31-0.54,0.81v0.9H5.92V1.6z"/>
		<path class="st0" d="M8.94,3.5C8.8,3.55,8.65,3.63,8.32,3.63c-0.7,0-1.02-0.43-1.02-1.07c0-0.58,0.37-1,0.93-1
			c0.66,0,0.87,0.48,0.87,1.12H7.68c0,0.39,0.31,0.66,0.65,0.66c0.24,0,0.52-0.12,0.61-0.2V3.5z M8.71,2.4
			c0-0.3-0.18-0.55-0.49-0.55c-0.36,0-0.5,0.29-0.53,0.55H8.71z"/>
		<path class="st0" d="M9.68,1.74c0.18-0.11,0.4-0.19,0.65-0.19c0.57,0,0.79,0.28,0.79,0.82v0.82c0,0.23,0.01,0.33,0.02,0.39H10.8
			V3.33h-0.01c-0.09,0.12-0.28,0.3-0.61,0.3c-0.43,0-0.72-0.19-0.72-0.62c0-0.5,0.54-0.65,0.92-0.65c0.14,0,0.24,0,0.39,0.01
			c0-0.34-0.12-0.52-0.49-0.52c-0.21,0-0.43,0.08-0.57,0.2L9.68,1.74z M10.76,2.64c-0.08,0-0.15-0.01-0.23-0.01
			c-0.2,0-0.69,0.03-0.69,0.38c0,0.21,0.2,0.32,0.37,0.32c0.36,0,0.55-0.22,0.55-0.52V2.64z"/>
	</g>
	<g>
		<path class="st0" d="M14.03,0.83c0.89,0,1.36,0.53,1.36,1.4c0,0.86-0.47,1.4-1.36,1.4c-0.88,0-1.36-0.54-1.36-1.4
			C12.67,1.36,13.14,0.83,14.03,0.83z M14.03,3.09c0.44,0,0.61-0.42,0.61-0.86c0-0.47-0.17-0.86-0.61-0.86
			c-0.44,0-0.61,0.4-0.61,0.86C13.42,2.67,13.59,3.09,14.03,3.09z"/>
	</g>
	<g>
		<path class="st0" d="M15.85,1.6h0.34v0.31h0.01c0.1-0.21,0.31-0.35,0.52-0.35c0.11,0,0.16,0.01,0.24,0.03v0.33
			c-0.07-0.03-0.14-0.03-0.2-0.03c-0.33,0-0.54,0.31-0.54,0.81v0.9h-0.36V1.6z"/>
		<path class="st0" d="M19.1,3.5c0,0.6-0.31,0.95-1.02,0.95c-0.21,0-0.39-0.03-0.71-0.14l0.04-0.34c0.28,0.13,0.45,0.18,0.71,0.18
			c0.38,0,0.61-0.26,0.61-0.68V3.27h-0.01c-0.16,0.21-0.41,0.31-0.66,0.31c-0.57,0-0.84-0.46-0.84-0.97c0-0.51,0.29-1.05,0.88-1.05
			c0.35,0,0.54,0.13,0.65,0.34h0.01V1.6h0.34V3.5z M18.74,2.62c0-0.41-0.19-0.76-0.58-0.76c-0.37,0-0.55,0.4-0.55,0.74
			c0,0.37,0.21,0.7,0.55,0.7C18.5,3.29,18.74,2.98,18.74,2.62z"/>
		<path class="st0" d="M19.82,1.74c0.18-0.11,0.4-0.19,0.65-0.19c0.57,0,0.79,0.28,0.79,0.82v0.82c0,0.23,0.01,0.33,0.02,0.39h-0.34
			V3.33h-0.01c-0.09,0.12-0.28,0.3-0.61,0.3c-0.43,0-0.72-0.19-0.72-0.62c0-0.5,0.54-0.65,0.92-0.65c0.14,0,0.24,0,0.39,0.01
			c0-0.34-0.12-0.52-0.49-0.52c-0.21,0-0.43,0.08-0.57,0.2L19.82,1.74z M20.9,2.64c-0.08,0-0.15-0.01-0.23-0.01
			c-0.2,0-0.69,0.03-0.69,0.38c0,0.21,0.2,0.32,0.37,0.32c0.36,0,0.55-0.22,0.55-0.52V2.64z"/>
		<path class="st0" d="M21.88,1.6h0.35v0.31h0.01c0.11-0.23,0.37-0.36,0.65-0.36c0.51,0,0.74,0.32,0.74,0.85v1.17h-0.36V2.56
			c0-0.46-0.1-0.69-0.42-0.71c-0.41,0-0.6,0.33-0.6,0.81v0.91h-0.36V1.6z"/>
	</g>
	<g>
		<path class="st0" d="M25.28,0.88h0.98c0.94,0,1.6,0.29,1.6,1.34c0,1.01-0.68,1.36-1.6,1.36h-0.98V0.88z M26,3.05h0.28
			c0.54,0,0.84-0.28,0.84-0.82c0-0.54-0.31-0.82-0.84-0.82H26V3.05z"/>
	</g>
	<g>
		<path class="st0" d="M29.22,1.56c0.6,0,1,0.43,1,1.03c0,0.57-0.41,1.03-1,1.03c-0.6,0-1.01-0.47-1.01-1.03
			C28.21,1.99,28.62,1.56,29.22,1.56z M29.22,3.33c0.43,0,0.62-0.39,0.62-0.74c0-0.38-0.23-0.74-0.62-0.74
			c-0.39,0-0.62,0.36-0.62,0.74C28.6,2.95,28.79,3.33,29.22,3.33z"/>
		<path class="st0" d="M30.72,1.6h0.35v0.31h0.01c0.11-0.23,0.37-0.36,0.65-0.36c0.51,0,0.74,0.32,0.74,0.85v1.17H32.1V2.56
			c0-0.46-0.1-0.69-0.42-0.71c-0.41,0-0.6,0.33-0.6,0.81v0.91h-0.36V1.6z"/>
		<path class="st0" d="M33.18,1.74c0.18-0.11,0.4-0.19,0.65-0.19c0.57,0,0.79,0.28,0.79,0.82v0.82c0,0.23,0.01,0.33,0.02,0.39H34.3
			V3.33h-0.01c-0.09,0.12-0.28,0.3-0.61,0.3c-0.43,0-0.72-0.19-0.72-0.62c0-0.5,0.54-0.65,0.92-0.65c0.14,0,0.24,0,0.39,0.01
			c0-0.34-0.12-0.52-0.49-0.52c-0.21,0-0.43,0.08-0.57,0.2L33.18,1.74z M34.26,2.64c-0.08,0-0.15-0.01-0.23-0.01
			c-0.2,0-0.69,0.03-0.69,0.38c0,0.21,0.2,0.32,0.37,0.32c0.36,0,0.55-0.22,0.55-0.52V2.64z"/>
		<path class="st0" d="M36.29,1.9h-0.52v1.08c0,0.23,0.14,0.35,0.31,0.35c0.11,0,0.19-0.03,0.25-0.07v0.31
			c-0.08,0.02-0.19,0.05-0.31,0.05c-0.38,0-0.61-0.18-0.61-0.57V1.9h-0.45V1.6h0.45V1.15l0.36-0.12V1.6h0.52V1.9z"/>
		<path class="st0" d="M37.19,1.16h-0.41V0.75h0.41V1.16z M36.8,1.6h0.36v1.98H36.8V1.6z"/>
		<path class="st0" d="M38.71,1.56c0.6,0,1,0.43,1,1.03c0,0.57-0.41,1.03-1,1.03c-0.6,0-1.01-0.47-1.01-1.03
			C37.7,1.99,38.1,1.56,38.71,1.56z M38.71,3.33c0.43,0,0.62-0.39,0.62-0.74c0-0.38-0.23-0.74-0.62-0.74
			c-0.39,0-0.62,0.36-0.62,0.74C38.09,2.95,38.28,3.33,38.71,3.33z"/>
	</g>
	<g>
		<path class="st0" d="M40.2,1.6h0.35v0.31h0.01c0.11-0.23,0.37-0.36,0.65-0.36c0.51,0,0.74,0.32,0.74,0.85v1.17h-0.36V2.56
			c0-0.46-0.1-0.69-0.42-0.71c-0.41,0-0.6,0.33-0.6,0.81v0.91H40.2V1.6z"/>
	</g>
	<g>
		<path class="st0" d="M44.41,0.88h0.88l1.04,2.7h-0.79L45.35,3h-1.02l-0.21,0.58h-0.73L44.41,0.88z M44.86,1.43L44.86,1.43
			L44.5,2.49h0.68L44.86,1.43z"/>
	</g>
	<g>
		<path class="st0" d="M48.41,3.5c0,0.6-0.31,0.95-1.02,0.95c-0.21,0-0.39-0.03-0.71-0.14l0.04-0.34C47,4.1,47.17,4.15,47.44,4.15
			c0.38,0,0.61-0.26,0.61-0.68V3.27h-0.01c-0.16,0.21-0.41,0.31-0.66,0.31c-0.57,0-0.85-0.46-0.85-0.97c0-0.51,0.29-1.05,0.88-1.05
			c0.35,0,0.54,0.13,0.65,0.34h0.01V1.6h0.34V3.5z M48.05,2.62c0-0.41-0.19-0.76-0.58-0.76c-0.37,0-0.55,0.4-0.55,0.74
			c0,0.37,0.21,0.7,0.55,0.7C47.81,3.29,48.05,2.98,48.05,2.62z"/>
		<path class="st0" d="M50.55,3.5c-0.14,0.05-0.3,0.13-0.62,0.13c-0.7,0-1.02-0.43-1.02-1.07c0-0.58,0.37-1,0.93-1
			c0.66,0,0.87,0.48,0.87,1.12h-1.41c0,0.39,0.31,0.66,0.65,0.66c0.24,0,0.52-0.12,0.61-0.2V3.5z M50.32,2.4
			c0-0.3-0.18-0.55-0.49-0.55c-0.36,0-0.5,0.29-0.53,0.55H50.32z"/>
		<path class="st0" d="M51.19,1.6h0.35v0.31h0.01c0.11-0.23,0.37-0.36,0.65-0.36c0.51,0,0.74,0.32,0.74,0.85v1.17h-0.36V2.56
			c0-0.46-0.1-0.69-0.42-0.71c-0.41,0-0.6,0.33-0.6,0.81v0.91h-0.36V1.6z"/>
		<path class="st0" d="M54.82,1.94c-0.14-0.06-0.28-0.09-0.4-0.09c-0.41,0-0.64,0.36-0.64,0.74c0,0.35,0.19,0.74,0.66,0.74
			c0.12,0,0.28-0.04,0.39-0.11l0.03,0.33c-0.15,0.07-0.33,0.08-0.46,0.08c-0.6,0-1.01-0.47-1.01-1.03c0-0.6,0.4-1.03,1.01-1.03
			c0.15,0,0.34,0.03,0.44,0.08L54.82,1.94z"/>
		<path class="st0" d="M55.14,4.12c0.05,0.02,0.11,0.03,0.17,0.03c0.33,0,0.43-0.45,0.43-0.49c0-0.04-0.05-0.14-0.07-0.21L55,1.6
			h0.4l0.53,1.64h0.01l0.54-1.64h0.37l-0.73,2.02C55.99,4,55.85,4.44,55.36,4.44c-0.12,0-0.18-0.02-0.25-0.03L55.14,4.12z"/>
	</g>
	<g>
		<path class="st0" d="M58.25,0.88h0.72v2.17h1.12v0.53h-1.84V0.88z"/>
		<path class="st0" d="M61.69,3.58c0-0.11-0.02-0.21-0.02-0.32h-0.01c-0.16,0.25-0.35,0.36-0.64,0.36c-0.4,0-0.76-0.2-0.76-0.64
			c0-0.62,0.67-0.69,1.04-0.69c0.11,0,0.24,0.01,0.33,0.03c0-0.27-0.21-0.35-0.46-0.35c-0.22,0-0.45,0.04-0.64,0.15l-0.01-0.47
			c0.25-0.1,0.51-0.14,0.81-0.14c0.52,0,0.96,0.22,0.96,0.84V3.1c0,0.16,0.01,0.32,0.04,0.48H61.69z M61.21,3.16
			c0.26,0,0.43-0.24,0.43-0.48c-0.09,0-0.19-0.01-0.29-0.01c-0.24,0-0.42,0.07-0.42,0.27C60.93,3.08,61.05,3.16,61.21,3.16z"/>
		<path class="st0" d="M62.73,0.67h0.7v1.15h0.01c0.18-0.22,0.42-0.31,0.69-0.31c0.56,0,0.86,0.53,0.86,1.02
			c0,0.6-0.32,1.09-0.92,1.09c-0.32,0-0.6-0.18-0.69-0.41h-0.01v0.36h-0.64V0.67z M63.85,2.05c-0.26,0-0.43,0.22-0.43,0.53
			c0,0.29,0.19,0.52,0.43,0.52c0.26,0,0.42-0.22,0.42-0.54C64.27,2.28,64.12,2.05,63.85,2.05z"/>
	</g>
	<g>
		<path class="st0" d="M66.31,1.56c0.6,0,1,0.43,1,1.03c0,0.57-0.41,1.03-1,1.03c-0.6,0-1.01-0.47-1.01-1.03
			C65.3,1.99,65.7,1.56,66.31,1.56z M66.31,3.33c0.43,0,0.62-0.39,0.62-0.74c0-0.38-0.23-0.74-0.62-0.74
			c-0.39,0-0.62,0.36-0.62,0.74C65.69,2.95,65.88,3.33,66.31,3.33z"/>
		<path class="st0" d="M67.8,1.6h0.34v0.31h0.01c0.1-0.21,0.31-0.35,0.52-0.35c0.11,0,0.16,0.01,0.24,0.03v0.33
			c-0.07-0.03-0.14-0.03-0.2-0.03c-0.33,0-0.54,0.31-0.54,0.81v0.9H67.8V1.6z"/>
		<path class="st0" d="M69.4,1.74c0.18-0.11,0.4-0.19,0.65-0.19c0.57,0,0.79,0.28,0.79,0.82v0.82c0,0.23,0.01,0.33,0.02,0.39h-0.34
			V3.33h-0.01c-0.09,0.12-0.28,0.3-0.61,0.3c-0.43,0-0.72-0.19-0.72-0.62c0-0.5,0.54-0.65,0.92-0.65c0.14,0,0.24,0,0.39,0.01
			c0-0.34-0.12-0.52-0.49-0.52c-0.21,0-0.43,0.08-0.57,0.2L69.4,1.74z M70.49,2.64c-0.08,0-0.15-0.01-0.23-0.01
			c-0.2,0-0.69,0.03-0.69,0.38c0,0.21,0.2,0.32,0.37,0.32c0.36,0,0.55-0.22,0.55-0.52V2.64z"/>
		<path class="st0" d="M72.52,1.9H72v1.08c0,0.23,0.14,0.35,0.31,0.35c0.11,0,0.19-0.03,0.25-0.07v0.31
			c-0.08,0.02-0.19,0.05-0.31,0.05c-0.38,0-0.61-0.18-0.61-0.57V1.9h-0.45V1.6h0.45V1.15L72,1.03V1.6h0.52V1.9z"/>
		<path class="st0" d="M73.85,1.56c0.6,0,1,0.43,1,1.03c0,0.57-0.41,1.03-1,1.03c-0.6,0-1.01-0.47-1.01-1.03
			C72.85,1.99,73.25,1.56,73.85,1.56z M73.85,3.33c0.43,0,0.62-0.39,0.62-0.74c0-0.38-0.23-0.74-0.62-0.74
			c-0.39,0-0.62,0.36-0.62,0.74C73.23,2.95,73.42,3.33,73.85,3.33z"/>
		<path class="st0" d="M75.35,1.6h0.34v0.31h0.01c0.1-0.21,0.31-0.35,0.52-0.35c0.11,0,0.16,0.01,0.24,0.03v0.33
			c-0.07-0.03-0.14-0.03-0.2-0.03c-0.33,0-0.54,0.31-0.54,0.81v0.9h-0.36V1.6z"/>
	</g>
	<g>
		<path class="st0" d="M76.71,4.12c0.05,0.02,0.11,0.03,0.17,0.03c0.33,0,0.43-0.45,0.43-0.49c0-0.04-0.05-0.14-0.07-0.21L76.57,1.6
			h0.4l0.53,1.64h0.01l0.54-1.64h0.37l-0.73,2.02C77.56,4,77.41,4.44,76.93,4.44c-0.12,0-0.18-0.02-0.25-0.03L76.71,4.12z"/>
	</g>
</g>
</svg>
