<?xml version="1.0" encoding="utf-8"?>
<!-- Generator: Adobe Illustrator 27.0.0, SVG Export Plug-In . SVG Version: 6.00 Build 0)  -->
<svg version="1.1" id="Layer_1" xmlns="http://www.w3.org/2000/svg" xmlns:xlink="http://www.w3.org/1999/xlink" x="0px" y="0px"
	 viewBox="0 0 81.94 13.74" style="enable-background:new 0 0 81.94 13.74;" xml:space="preserve">
<style type="text/css">
	.st0{fill:#034694;}
	.st1{clip-path:url(#SVGID_00000009560215883067887030000017152086021124723360_);}
	.st2{clip-path:url(#SVGID_00000074418140212494660730000003130605443377917570_);}
	.st3{clip-path:url(#SVGID_00000000198152605128613910000004782407036145067666_);}
	.st4{clip-path:url(#SVGID_00000022536665377724830770000005622782870789365431_);}
	.st5{clip-path:url(#SVGID_00000068667498564829190510000011454741391618052740_);}
	.st6{clip-path:url(#SVGID_00000048499826596844210160000005876155287484766888_);}
	.st7{clip-path:url(#SVGID_00000012469789211647480310000017186610911253229988_);}
	.st8{clip-path:url(#SVGID_00000166676490956995135120000017286564803516680341_);}
	.st9{clip-path:url(#SVGID_00000087410110637367549050000006539928169650238090_);}
	.st10{clip-path:url(#SVGID_00000004516494904981276090000008999237084122312330_);}
</style>
<g>
	<path class="st0" d="M6.06,3.89c0.33,0.46,0.48,0.99,0.48,1.6c-0.09,3.36-4.69,3.33-4.77,0c-0.02-0.6,0.15-1.13,0.5-1.6H1.34V2.73
		h2.23V1.96h1.2v0.77h2.22v1.16H6.06z M2.59,12.27c-0.4,0-0.64-0.32-0.64-0.78V8.8h1.19v2.1c0,0.13,0.05,0.19,0.16,0.19h5.77v1.18
		H2.59z M2.88,5.45c0,2.03,2.55,2,2.58,0.04C5.48,3.5,2.88,3.52,2.88,5.45 M9.02,3.64c-0.11,0-0.17,0.07-0.17,0.2v5.64H7.64V3.39
		c0-0.57,0.3-0.92,0.77-0.92h1.31v1.17H9.02z"/>
	<path class="st0" d="M14.81,7.35V8.5h2.23c0.44,0,0.65,0.26,0.65,0.78v3.25h-1.21V9.88c0-0.13-0.06-0.21-0.17-0.21h-5.44V8.5h2.7
		V7.35h-3.33V6.15h6.06v-2.5c0-0.12-0.08-0.21-0.18-0.21h-5.26V2.27h5.98c0.4,0,0.66,0.3,0.66,0.78v3.1h0.83v1.21H14.81z"/>
	<path class="st0" d="M22.15,4.37c-0.33,1.89-1.3,3.07-2.98,2.87V6.09c1.35,0.11,1.94-1.24,1.99-2.65h-1.78V2.27h5.55v1.17h-1.76
		c0.07,1.86,0.73,2.74,1.98,2.65v1.16C23.42,7.44,22.46,6.37,22.15,4.37 M21.25,10.24c-0.06-3.17,4.82-3.17,4.74,0.04
		C25.92,13.37,21.3,13.35,21.25,10.24 M22.5,10.27c0.05,1.52,2.22,1.54,2.24-0.04C24.77,8.59,22.45,8.62,22.5,10.27 M26.86,3.44
		c-0.11,0-0.19,0.08-0.19,0.21v4.37h-1.22V3.22c0-0.58,0.31-0.95,0.78-0.95h1.43v1.17H26.86z"/>
	<path class="st0" d="M28.09,8.25V7.08c2.14-0.06,4.05-0.24,4.05-3.43c0-0.14-0.06-0.21-0.18-0.21H28.3V2.27h4.32
		c0.48,0,0.78,0.37,0.78,0.95C33.4,7.58,31.28,8.32,28.09,8.25 M34.8,2.27h1.22v10.26H34.8V2.27z"/>
	<path class="st0" d="M37,11.22v-1.19h3.64V7.71h1.23v2.32h3.51v1.19H37z M41.26,4.18c-0.6,2.4-1.58,4.02-3.87,3.89V6.88
		c1.65,0.07,2.64-1.66,2.8-3.44H37.8V2.27h6.65v1.17H42.3c0.17,1.56,1.09,3.51,2.58,3.44v1.18C42.75,8.2,41.76,6.47,41.26,4.18"/>
	<path class="st0" d="M49.11,4.35c-0.38,1.96-1.5,2.99-3.19,2.91V6.06c1.37-0.02,2.12-1.05,2.25-2.62h-2.03V2.27h5.98v1.17h-2.04
		c0.18,1.74,0.92,2.61,2.26,2.62v1.19C50.52,7.36,49.44,6.39,49.11,4.35 M52.63,12.53V9.88c0-0.12-0.07-0.21-0.17-0.21h-6.33V8.5
		h7.04c0.41,0,0.67,0.28,0.67,0.78v3.25H52.63z M52.63,2.27h1.22v5.86h-1.22V2.27z"/>
	<path class="st0" d="M54.83,8.25V7.08c2.14-0.06,4.05-0.24,4.05-3.43c0-0.14-0.06-0.21-0.18-0.21h-3.65V2.27h4.32
		c0.48,0,0.78,0.37,0.78,0.95C60.15,7.58,58.03,8.32,54.83,8.25 M61.55,2.27h1.22v10.26h-1.22V2.27z"/>
	<path class="st0" d="M63.75,6.73h8.12v1.15h-8.12V6.73z M67.86,3.92c-0.46,2.14-2.15,2.76-3.79,2.54V5.38
		c1.62,0.01,2.53-0.63,2.71-1.94h-2.3V2.27h6.65v1.17H68.9c0.31,1.44,1.55,1.95,2.67,1.94v1.1C69.94,6.64,68.36,5.92,67.86,3.92
		 M65.44,10.31c0.05-2.94,4.82-3.01,4.77,0.06C70.17,13.42,65.39,13.28,65.44,10.31 M68.95,10.34c-0.03-1.5-2.23-1.42-2.25,0
		c-0.03,1.48,2.27,1.57,2.24,0H68.95z"/>
	<path class="st0" d="M76.26,8.24v1.43h-1.22V8.24h-2.38V7.03h6.19v1.21H76.26z M73.11,4.55c0.05-3,4.69-3,4.76-0.04
		C77.96,7.61,73.06,7.59,73.11,4.55 M73.97,12.26c-0.42,0-0.67-0.3-0.67-0.79V8.98h1.23v1.89c0,0.12,0.06,0.19,0.17,0.19h5.9v1.19
		H73.97z M74.32,4.49c-0.1,1.61,2.37,1.71,2.31,0.02C76.58,3.05,74.42,3.04,74.32,4.49 M79.16,9.41V6.04h-1.1V4.86h1.1V2.27h1.21
		v7.14H79.16z"/>
</g>
</svg>
