<?xml version="1.0" encoding="utf-8"?>
<!-- Generator: Adobe Illustrator 27.0.0, SVG Export Plug-In . SVG Version: 6.00 Build 0)  -->
<svg version="1.1" id="Layer_1" xmlns="http://www.w3.org/2000/svg" xmlns:xlink="http://www.w3.org/1999/xlink" x="0px" y="0px"
	 viewBox="0 0 24 24" style="enable-background:new 0 0 24 24;" xml:space="preserve">
<style type="text/css">
	.st0{fill:#FFFFFF;}
</style>
<path class="st0" d="M5.8,17.8c-0.9-0.9-1.7-1.9-2.2-3.1c-0.5-1.2-0.8-2.4-0.8-3.7c0-2.5,0.9-4.7,2.7-6.5c1.8-1.8,4-2.7,6.5-2.7
	c2.1,0,4,0.6,5.6,1.9c1.6,1.3,2.7,2.9,3.2,4.9l1.3,5.2c0.1,0.4,0,0.7-0.2,1c-0.2,0.3-0.5,0.4-0.9,0.4h-1.9v2.7
	c0,0.6-0.2,1.2-0.7,1.6c-0.4,0.4-1,0.7-1.6,0.7h-1.7V21c0,0.3-0.1,0.6-0.3,0.8c-0.2,0.2-0.5,0.3-0.8,0.3c-0.3,0-0.6-0.1-0.8-0.3
	c-0.2-0.2-0.3-0.5-0.3-0.8v-2c0-0.3,0.1-0.6,0.3-0.8c0.2-0.2,0.5-0.3,0.8-0.3h2.9V14c0-0.3,0.1-0.6,0.3-0.8c0.2-0.2,0.5-0.3,0.8-0.3
	h1.5l-0.9-3.8c-0.4-1.5-1.2-2.7-2.4-3.6C15,4.6,13.6,4.1,12,4.1c-1.9,0-3.5,0.7-4.9,2c-1.3,1.3-2,3-2,4.9c0,1,0.2,1.9,0.6,2.8
	c0.4,0.9,1,1.7,1.7,2.4l0.7,0.6V21c0,0.3-0.1,0.6-0.3,0.8c-0.2,0.2-0.5,0.3-0.8,0.3c-0.3,0-0.6-0.1-0.8-0.3S5.8,21.4,5.8,21
	C5.8,21,5.8,17.8,5.8,17.8z M11.9,16.2c0.3,0,0.6-0.1,0.8-0.3c0.2-0.2,0.3-0.5,0.3-0.8c0-0.3-0.1-0.6-0.3-0.8
	c-0.2-0.2-0.5-0.3-0.8-0.3c-0.3,0-0.6,0.1-0.8,0.3c-0.2,0.2-0.3,0.5-0.3,0.8s0.1,0.6,0.3,0.8C11.4,16.1,11.6,16.2,11.9,16.2z
	 M12,7.5c0.3,0,0.6,0.1,0.9,0.3c0.2,0.2,0.3,0.4,0.3,0.7c0,0.3-0.1,0.5-0.2,0.7c-0.1,0.2-0.4,0.6-0.8,1c-0.3,0.3-0.6,0.7-0.7,0.9
	c-0.1,0.3-0.3,0.6-0.3,0.9c0,0.2,0,0.4,0.2,0.6c0.2,0.2,0.3,0.2,0.6,0.2c0.2,0,0.4-0.1,0.5-0.2c0.2-0.1,0.3-0.3,0.3-0.6
	c0.1-0.2,0.1-0.4,0.2-0.6c0.1-0.2,0.3-0.4,0.5-0.7c0.5-0.6,0.8-1,1-1.3c0.2-0.3,0.2-0.7,0.2-1c0-0.7-0.3-1.3-0.8-1.8
	C13.5,6.2,12.8,6,12,6c-0.5,0-1,0.1-1.5,0.4C10,6.6,9.7,7,9.4,7.4C9.2,7.6,9.2,7.8,9.3,8c0.1,0.2,0.2,0.4,0.4,0.5
	c0.2,0.1,0.4,0.1,0.6,0c0.2-0.1,0.4-0.2,0.5-0.4c0.2-0.2,0.3-0.3,0.5-0.4C11.6,7.6,11.8,7.5,12,7.5z"/>
</svg>
