<svg width="23" height="28" viewBox="0 0 23 28" fill="none" xmlns="http://www.w3.org/2000/svg">
<g clip-path="url(#clip0_428_264)">
<path d="M13.4593 14.9361C14.2133 12.71 15.0387 9.84406 15.0387 7.32463C15.0387 2.58315 13.6142 1.39563 12.5245 0.483707C12.3486 0.33628 12.1722 0.219757 12.0001 0.128565C11.6771 -0.0431804 11.3224 -0.0431804 10.9994 0.128565C10.8274 0.219757 10.6509 0.33628 10.475 0.483707C9.3853 1.39563 7.96084 2.68447 7.96084 7.42595C7.96084 9.94538 8.7862 12.71 9.54021 14.9361C5.48575 20.3241 0 24.3289 0 24.3289C6.18992 25.0063 4.72393 27.9999 4.72393 27.9999C4.72393 27.9999 8.5834 24.8522 11.5002 19.4121C14.4171 24.8522 18.2766 27.9999 18.2766 27.9999C18.2766 27.9999 16.941 24.7529 23.0005 24.3289C23.0005 24.3289 17.5147 20.3241 13.4598 14.9361H13.4593ZM9.2343 5.44455C9.1395 4.3082 9.62181 3.23517 10.4007 2.88054C10.692 2.7478 11.0531 2.66066 11.5002 2.65306C11.9464 2.66066 12.307 2.7478 12.5978 2.88003C13.3777 3.23416 13.8605 4.30921 13.7652 5.44709C13.579 7.66812 12.7136 9.8932 11.4998 11.9962C10.2854 9.8927 9.42 7.6666 9.2343 5.44506V5.44455Z" fill="white"/>
</g>
<defs>
<clipPath id="clip0_428_264">
<rect width="23" height="28" fill="white"/>
</clipPath>
</defs>
</svg>
